<svg width="10" height="10" viewBox="0 0 10 10" fill="none" xmlns="http://www.w3.org/2000/svg">
<g clip-path="url(#clip0_272_1311)">
<path d="M2.5 4.16666V3.33333C2.5 1.95416 2.91667 0.833328 5 0.833328C7.08333 0.833328 7.5 1.95416 7.5 3.33333V4.16666M5 7.70833C5.27627 7.70833 5.54122 7.59858 5.73657 7.40323C5.93192 7.20788 6.04167 6.94293 6.04167 6.66666C6.04167 6.39039 5.93192 6.12544 5.73657 5.93009C5.54122 5.73474 5.27627 5.62499 5 5.62499C4.72373 5.62499 4.45878 5.73474 4.26343 5.93009C4.06808 6.12544 3.95833 6.39039 3.95833 6.66666C3.95833 6.94293 4.06808 7.20788 4.26343 7.40323C4.45878 7.59858 4.72373 7.70833 5 7.70833Z" stroke="#A2A2A6" stroke-linecap="round" stroke-linejoin="round"/>
<path d="M7.08337 9.16667H2.91671C1.25004 9.16667 0.833374 8.75 0.833374 7.08334V6.25001C0.833374 4.58334 1.25004 4.16667 2.91671 4.16667H7.08337C8.75004 4.16667 9.16671 4.58334 9.16671 6.25001V7.08334C9.16671 8.75 8.75004 9.16667 7.08337 9.16667Z" stroke="#A2A2A6" stroke-linecap="round" stroke-linejoin="round"/>
</g>
<defs>
<clipPath id="clip0_272_1311">
<rect width="10" height="10" fill="white"/>
</clipPath>
</defs>
</svg>
